<svg width="20" height="22" viewBox="0 0 20 22" fill="none" xmlns="http://www.w3.org/2000/svg">
<path fill-rule="evenodd" clip-rule="evenodd" d="M1.22712 5.02128L9.19032 0.861284C9.77496 0.551284 10.4806 0.551284 11.0652 0.861284L19.0284 5.02128C19.4417 5.23128 19.7038 5.66128 19.7038 6.12128C19.7038 6.81128 19.1393 7.37128 18.4538 7.37128H1.81176C1.11624 7.37128 0.551758 6.81128 0.551758 6.12128C0.551758 5.66128 0.813838 5.23128 1.22712 5.02128ZM2.56776 10.8713V14.8713C2.56776 15.7013 3.24312 16.3713 4.07976 16.3713C4.9164 16.3713 5.59176 15.7013 5.59176 14.8713V10.8713C5.59176 10.0413 4.9164 9.37128 4.07976 9.37128C3.24312 9.37128 2.56776 10.0413 2.56776 10.8713ZM8.61576 10.8713V14.8713C8.61576 15.7013 9.29112 16.3713 10.1278 16.3713C10.9644 16.3713 11.6398 15.7013 11.6398 14.8713V10.8713C11.6398 10.0413 10.9644 9.37128 10.1278 9.37128C9.29112 9.37128 8.61576 10.0413 8.61576 10.8713ZM18.1918 21.3713H2.06376C1.22712 21.3713 0.551758 20.7013 0.551758 19.8713C0.551758 19.0413 1.22712 18.3713 2.06376 18.3713H18.1918C19.0284 18.3713 19.7038 19.0413 19.7038 19.8713C19.7038 20.7013 19.0284 21.3713 18.1918 21.3713ZM14.6638 10.8713V14.8713C14.6638 15.7013 15.3391 16.3713 16.1758 16.3713C17.0124 16.3713 17.6878 15.7013 17.6878 14.8713V10.8713C17.6878 10.0413 17.0124 9.37128 16.1758 9.37128C15.3391 9.37128 14.6638 10.0413 14.6638 10.8713Z" fill="#78AC43"/>
</svg>
