<svg width="25" height="24" viewBox="0 0 25 24" fill="none" xmlns="http://www.w3.org/2000/svg">
<path d="M17.5636 7.05374L19.0151 8.49374L14.0961 13.3737L10.7797 10.0837C10.5914 9.89648 10.3357 9.79125 10.0691 9.79125C9.80247 9.79125 9.54679 9.89648 9.35846 10.0837L3.31046 16.0937C2.91735 16.4837 2.91735 17.1137 3.31046 17.5037C3.70358 17.8937 4.33862 17.8937 4.73174 17.5037L10.0641 12.2037L13.3804 15.4937C13.7735 15.8837 14.4085 15.8837 14.8017 15.4937L20.4364 9.91374L21.8879 11.3537C22.2004 11.6637 22.7447 11.4437 22.7447 11.0037V6.70374C22.7548 6.42374 22.533 6.20374 22.2508 6.20374H17.9265C17.4729 6.20374 17.2511 6.74374 17.5636 7.05374V7.05374Z" fill="#78AC43"/>
</svg>
